<?xml version="1.0" encoding="iso-8859-1"?>
<!-- Generator: Adobe Illustrator 19.0.0, SVG Export Plug-In . SVG Version: 6.00 Build 0)  -->
<svg version="1.1" id="Layer_1" xmlns="http://www.w3.org/2000/svg" xmlns:xlink="http://www.w3.org/1999/xlink" x="0px" y="0px"
	 viewBox="0 0 511.995 511.995" style="enable-background:new 0 0 511.995 511.995;" xml:space="preserve">
<g>
	<g>
		<path d="M24.086,266.75L148.48,105.171c3.584-4.672,2.709-11.371-1.963-14.955c-4.672-3.605-11.349-2.731-14.955,1.941
			l-129.344,168c-2.923,3.797-2.965,9.067-0.085,12.907l128,170.667c2.091,2.795,5.312,4.267,8.533,4.267
			c2.219,0,4.48-0.704,6.4-2.133c4.715-3.541,5.675-10.219,2.155-14.933L24.086,266.75z"/>
	</g>
</g>
<g>
	<g>
		<path d="M509.867,260.265l-128-170.667c-3.541-4.736-10.219-5.675-14.933-2.133c-4.715,3.541-5.675,10.219-2.155,14.933
			l123.2,164.267l-123.2,164.267c-3.52,4.715-2.56,11.392,2.155,14.933c1.92,1.429,4.181,2.133,6.4,2.133
			c3.221,0,6.443-1.472,8.533-4.267l128-170.667C512.704,269.267,512.704,264.062,509.867,260.265z"/>
	</g>
</g>
<g>
	<g>
		<path d="M312.256,21.737c-5.781-1.6-11.584,1.664-13.184,7.339l-128,448c-1.621,5.653,1.643,11.563,7.317,13.184
			c0.981,0.277,1.984,0.405,2.944,0.405c4.651,0,8.917-3.051,10.24-7.744l128-448C321.195,29.267,317.931,23.358,312.256,21.737z"/>
	</g>
</g>
<g>
</g>
<g>
</g>
<g>
</g>
<g>
</g>
<g>
</g>
<g>
</g>
<g>
</g>
<g>
</g>
<g>
</g>
<g>
</g>
<g>
</g>
<g>
</g>
<g>
</g>
<g>
</g>
<g>
</g>
</svg>
